<svg xmlns="http://www.w3.org/2000/svg" version="1.1" xmlns:xlink="http://www.w3.org/1999/xlink" xmlns:svgjs="http://svgjs.dev/svgjs" width="1000" height="999" viewBox="0 0 1000 999"><g transform="matrix(1,0,0,1,-0.215743440233382,-0.21552769679306039)"><svg viewBox="0 0 343 343" data-background-color="#ffffff" preserveAspectRatio="xMidYMid meet" height="999" width="1000" xmlns="http://www.w3.org/2000/svg" xmlns:xlink="http://www.w3.org/1999/xlink"><g id="tight-bounds" transform="matrix(1,0,0,1,0.0740000000000407,0.07400000000001228)"><svg viewBox="0 0 342.85155851775386 342.85155851775386" height="342.85155851775386" width="342.85155851775386"><g><svg></svg></g><g><svg viewBox="0 0 342.85155851775386 342.85155851775386" height="342.85155851775386" width="342.85155851775386"><g><path d="M0 171.426c0-94.676 76.75-171.426 171.426-171.426 94.676 0 171.426 76.75 171.426 171.426 0 94.676-76.75 171.426-171.426 171.426-94.676 0-171.426-76.75-171.426-171.426zM171.426 325.929c85.33 0 154.504-69.174 154.503-154.503 0-85.33-69.174-154.504-154.503-154.504-85.33 0-154.504 69.174-154.504 154.504 0 85.33 69.174 154.504 154.504 154.503z" data-fill-palette-color="tertiary" fill="#ba3b0a" stroke="transparent"></path><ellipse rx="164.56874808852186" ry="164.56874808852186" cx="171.42577925887693" cy="171.42577925887693" fill="#ba3b0a" stroke="transparent" stroke-width="0" fill-opacity="1" data-fill-palette-color="tertiary"></ellipse></g><g transform="matrix(1,0,0,1,64.84655864529837,77.60205047405113)"><svg viewBox="0 0 213.1584412271571 187.6474575696516" height="187.6474575696516" width="213.1584412271571"><g><svg viewBox="0 0 213.1584412271571 187.6474575696516" height="187.6474575696516" width="213.1584412271571"><g><svg viewBox="0 0 213.1584412271571 187.6474575696516" height="187.6474575696516" width="213.1584412271571"><g><svg viewBox="0 0 213.1584412271571 187.6474575696516" height="187.6474575696516" width="213.1584412271571"><g id="textblocktransform"><svg viewBox="0 0 213.1584412271571 187.6474575696516" height="187.6474575696516" width="213.1584412271571" id="textblock"><g><svg viewBox="0 0 213.1584412271571 187.6474575696516" height="187.6474575696516" width="213.1584412271571"><g transform="matrix(1,0,0,1,0,0)"><svg width="213.1584412271571" viewBox="2.299999952316284 -32.150001525878906 37.60000228881836 33.10000228881836" height="187.6474575696516" data-palette-color="#ffffff"><path d="M19.85 0.95L10.25-26 10-26Q9.7-22.7 8.95-13.63 8.2-4.55 8.2-3.75L8.2-3.75Q8.2-2.2 9.75-2.2L9.75-2.2 11.8-2.25 11.9-2.05 11.45 0.2Q10.9 0.15 9.47 0.08 8.05 0 6.6 0L6.6 0Q5.35 0 4.03 0.18 2.7 0.35 2.3 0.4L2.3 0.4 2.55-1.9Q4.15-2.1 4.85-2.93 5.55-3.75 5.75-5.75L5.75-5.75Q6.25-10.45 7.08-18.43 7.9-26.4 7.9-27.35L7.9-27.35Q7.9-28.65 6.88-29.3 5.85-29.95 3.6-30.1L3.6-30.1 3.45-30.35 3.85-32.1Q4.5-32.05 6.4-31.95 8.3-31.85 9.3-31.85L9.3-31.85Q10.2-31.85 11.28-31.93 12.35-32 12.7-32.05L12.7-32.05Q14.7-25.6 16.57-20.08 18.45-14.55 19.65-11.3 20.85-8.05 21.15-7.25L21.15-7.25 21.4-7.25Q22.1-9.1 24.6-16.05 27.1-23 30.05-31.95L30.05-31.95Q30.05-32 31.4-31.9L31.4-31.9 33.35-31.85Q34.3-31.85 36.2-31.98 38.1-32.1 38.75-32.15L38.75-32.15 38.85-31.95 38.6-30.1Q36.45-29.85 35.55-29.23 34.65-28.6 34.65-27.35L34.65-27.35Q34.65-26.25 35.1-19.18 35.55-12.1 35.95-6.95L35.95-6.95Q36.2-4.9 36.45-3.93 36.7-2.95 37.15-2.58 37.6-2.2 38.4-2.2L38.4-2.2Q38.85-2.2 39.25-2.25 39.65-2.3 39.8-2.3L39.8-2.3 39.9-2.1 39.45 0.15Q38.95 0.1 37.58 0.05 36.2 0 34.7 0L34.7 0Q33.35 0 31.68 0.18 30 0.35 29.5 0.4L29.5 0.4 29.7-1.9Q31.25-2.1 31.95-2.7 32.65-3.3 32.65-4.4L32.65-4.4Q32.65-5.45 31.93-14.15 31.2-22.85 30.95-26L30.95-26 30.7-26 21.05 0.6 19.85 0.95Z" opacity="1" transform="matrix(1,0,0,1,0,0)" fill="#ffffff" class="undefined-text-0" data-fill-palette-color="quaternary" id="text-0"></path></svg></g></svg></g></svg></g></svg></g><g></g></svg></g></svg></g></svg></g></svg></g><defs></defs></svg><rect width="342.85155851775386" height="342.85155851775386" fill="none" stroke="none" visibility="hidden"></rect></g></svg></g></svg>